<?xml version="1.0" encoding="UTF-8"?>
<svg width="394px" height="397px" viewBox="0 0 394 397" version="1.1" xmlns="http://www.w3.org/2000/svg" xmlns:xlink="http://www.w3.org/1999/xlink">
    <!-- Generator: Sketch 44 (41411) - http://www.bohemiancoding.com/sketch -->
    <title>Page 1</title>
    <desc>Created with Sketch.</desc>
    <defs>
        <polygon id="path-1" points="0.224 108 358.574 108 358.574 0.5381 0.224 0.5381"></polygon>
        <polygon id="path-3" points="5.42101086e-20 0.6225 5.42101086e-20 207.3155 180.5045 207.3155 180.5045 0.6225 0 0.6225"></polygon>
    </defs>
    <g id="Home" stroke="none" stroke-width="1" fill="none" fill-rule="evenodd">
        <g id="Page-1">
            <path d="M198.3959,78.6766 C252.7099,78.6766 296.7419,122.7076 296.7419,177.0216 C296.7419,190.3246 294.0939,203.0086 289.3079,214.5816 L381.7029,160.2996 L373.2809,152.4356 L217.8239,7.3006 C206.7009,-2.4324 190.0909,-2.4324 178.9679,7.3006 L23.5109,152.4356 L15.0889,160.2996 L107.4839,214.5816 C102.6979,203.0086 100.0509,190.3246 100.0509,177.0216 C100.0509,122.7076 144.0819,78.6766 198.3959,78.6766" id="Fill-1" fill="#FF4949"></path>
            <path d="M159.0575,190.7025 C159.0575,212.3385 176.6705,230.0405 198.3955,230.0405 C220.1215,230.0405 237.7345,212.3385 237.7345,190.7025 L159.0575,190.7025 Z" id="Fill-3" fill="#FF4949"></path>
            <path d="M168.8924,168.6624 C168.8924,172.7364 165.5894,176.0384 161.5164,176.0384 C157.4424,176.0384 154.1404,172.7364 154.1404,168.6624 C154.1404,164.5894 157.4424,161.2864 161.5164,161.2864 C165.5894,161.2864 168.8924,164.5894 168.8924,168.6624" id="Fill-5" fill="#FF4949"></path>
            <path d="M242.6512,168.6624 C242.6512,172.7364 239.3492,176.0384 235.2752,176.0384 C231.2022,176.0384 227.8992,172.7364 227.8992,168.6624 C227.8992,164.5894 231.2022,161.2864 235.2752,161.2864 C239.3492,161.2864 242.6512,164.5894 242.6512,168.6624" id="Fill-7" fill="#FF4949"></path>
            <g id="Group-11" transform="translate(20.000000, 289.038000)">
                <mask id="mask-2" fill="white">
                    <use xlink:href="#path-1"></use>
                </mask>
                <g id="Clip-10"></g>
                <path d="M0.224,106.3461 C3.311,107.4421 6.645,108.0001 10.108,108.0001 L344.483,108.0001 C347.947,108.0001 351.268,107.4421 354.356,106.3461 C355.84,105.8191 357.245,105.1781 358.574,104.4341 L180.381,0.5381 L0.348,106.2701 L0.224,106.3461 Z" id="Fill-9" fill="#FF6262" mask="url(#mask-2)"></path>
            </g>
            <path d="M200.3807,289.9222 L378.2807,393.6462 C382.5837,391.4002 386.1107,388.0912 388.8847,384.0392 C392.1297,379.3012 393.6617,373.5922 393.6617,367.4152 L393.6617,191.2612 C393.6617,186.4202 393.0047,181.6972 391.0937,177.3672 L266.4407,250.7092 L225.2517,274.9622 L214.4017,281.3632 L200.2527,289.8202 L200.3807,289.9222 Z" id="Fill-12" fill="#FF4949"></path>
            <g id="Group-16" transform="translate(0.000000, 175.038000)">
                <mask id="mask-4" fill="white">
                    <use xlink:href="#path-3"></use>
                </mask>
                <g id="Clip-15"></g>
                <path d="M3.3055,0.6225 C1.3945,4.9515 -0.0005,9.6755 -0.0005,14.5165 L-0.0005,190.6705 C-0.0005,196.8475 2.2695,202.5775 5.5145,207.3155 L180.5045,104.6175 L169.7005,98.2165 L128.2815,73.9645 L3.3055,0.6225 Z" id="Fill-14" fill="#FF4949" mask="url(#mask-4)"></path>
            </g>
        </g>
    </g>
</svg>